<svg width="32" height="32" viewBox="0 0 32 32" fill="none" xmlns="http://www.w3.org/2000/svg">
<path fill-rule="evenodd" clip-rule="evenodd" d="M19.5883 24.6476L19.5634 24.6388L19.5415 24.668L18.313 26.4239L18.2062 26.5657C16.0504 29.4152 14.8525 31 13.3841 31L13.3988 30.9854C13.2086 30.9854 13.0185 30.9561 12.8284 30.9123C10.9709 30.4152 10.9709 28.3976 10.9709 24.3771V21.6724L10.1226 21.38C3.96526 19.2454 0.908514 18.1782 0.747633 15.5319C0.601377 12.8638 3.54112 11.4749 9.39135 8.71019L9.43523 8.68973L20.1411 3.63117C24.9676 1.33581 27.3954 0.195446 29.3553 1.64284C31.3151 3.09023 30.8763 5.70723 29.9988 10.912L28.5947 19.2454L28.5845 19.301C28.0053 22.6578 27.6923 24.4707 26.0938 25.4005C25.538 25.7221 24.9822 25.8683 24.3387 25.8683L24.3241 25.8537C23.1101 25.8537 21.6447 25.3523 19.5883 24.6476ZM13.1647 22.4297V24.3771C13.1647 26.3947 13.1647 28.4707 13.4719 28.8508C13.8521 28.7046 15.227 26.8918 16.5433 25.1373L17.4164 23.8976L13.1647 22.4297ZM10.3566 10.6634C5.83733 12.798 2.86834 14.2015 2.92684 15.4004C2.99997 16.5846 6.10059 17.6665 10.7954 19.2893L11.3936 19.4954L22.2604 8.63125C22.6845 8.20726 23.3866 8.20726 23.8107 8.63125C24.2348 9.05523 24.2348 9.75699 23.8107 10.181L13.6986 20.2908L20.1558 22.5203C22.9931 23.4999 24.2656 23.9092 24.9676 23.4999C25.655 23.0905 25.9036 21.804 26.4009 18.9238L27.805 10.5757L27.8225 10.4705C28.4704 6.56689 28.8931 4.02006 28.0243 3.38263C27.138 2.72911 24.8813 3.79199 21.1415 5.55371L21.0626 5.59026L10.3566 10.6488V10.6634Z" fill="black" stroke="black" stroke-width="1.5" stroke-linecap="round" stroke-linejoin="round"/>
</svg>
